#N canvas 43 125 1012 662 10;
#X obj 278 190 osc~;
#X obj 279 234 *~ 0.3;
#X obj 276 78 r Channel-A;
#X obj 276 99 * 2000;
#X obj 276 120 + 20;
#X obj 388 189 osc~;
#X obj 389 233 *~ 0.3;
#X obj 386 98 * 2000;
#X obj 386 119 + 20;
#X obj 386 77 r Channel-B;
#X obj 498 183 osc~;
#X obj 499 227 *~ 0.3;
#X obj 496 92 * 2000;
#X obj 496 113 + 20;
#X obj 496 71 r Channel-C;
#X obj 395 350 *~;
#X obj 515 303 r Channel-D;
#X obj 390 430 dac~;
#X text 612 69 A simple patch for the Rebel Technology OWL by Adam
Parkinson;
#X connect 0 0 1 0;
#X connect 1 0 15 0;
#X connect 2 0 3 0;
#X connect 3 0 4 0;
#X connect 4 0 0 0;
#X connect 5 0 6 0;
#X connect 6 0 15 0;
#X connect 7 0 8 0;
#X connect 8 0 5 0;
#X connect 9 0 7 0;
#X connect 10 0 11 0;
#X connect 11 0 15 0;
#X connect 12 0 13 0;
#X connect 13 0 10 0;
#X connect 14 0 12 0;
#X connect 15 0 17 0;
#X connect 15 0 17 1;
#X connect 16 0 15 1;
