#N canvas 0 23 916 620 10;
#X obj 45 458 dac~;
#X obj 102 70 r Channel-A;
#X obj 20 49 adc~;
#X obj 91 116 + 0;
#X obj 92 95 * 1;
#X obj 98 283 *~;
#X connect 1 0 4 0;
#X connect 2 0 5 0;
#X connect 2 1 5 0;
#X connect 3 0 5 1;
#X connect 4 0 3 0;
#X connect 5 0 0 0;
#X connect 5 0 0 1;
