#N canvas 0 23 916 620 10;
#X obj 45 458 dac~;
#X obj 444 146 r Channel-D;
#X obj 330 118 r Channel-C;
#X obj 219 94 r Channel-B;
#X obj 102 70 r Channel-A;
#X obj 20 49 adc~;
#X obj 205 141 + 0;
#X obj 91 116 + 0;
#X obj 92 95 * 1;
#X obj 206 120 * 1;
#X obj 320 143 * 1;
#X obj 319 164 + 0;
#X obj 435 171 * 1;
#X obj 433 192 + 0;
#X obj 98 283 *~;
#X connect 1 0 12 0;
#X connect 2 0 10 0;
#X connect 3 0 9 0;
#X connect 4 0 8 0;
#X connect 5 0 14 0;
#X connect 5 1 14 0;
#X connect 7 0 14 1;
#X connect 8 0 7 0;
#X connect 9 0 6 0;
#X connect 10 0 11 0;
#X connect 12 0 13 0;
#X connect 14 0 0 0;
#X connect 14 0 0 1;
